<svg id="Слой_1" data-name="Слой 1" xmlns="http://www.w3.org/2000/svg" viewBox="0 0 23.67 13.55"><defs><style>.cls-1{fill:#1a91a1;}</style></defs><title>blue</title><path class="cls-1" d="M26,8.37a12.82,12.82,0,0,1-1,1.25c-1.84,1.81-3.72,3.59-5.56,5.4C18,16.49,16.57,18,15,19.46a1.55,1.55,0,0,1-1.49.13c-1.42-1.25-2.72-2.64-4.07-4S7.06,13.23,5.86,12A39.39,39.39,0,0,1,2.65,8.68c-0.8-1,.27-1.69.89-2.25s1-.3,1.57.34C6.48,8.33,8,9.72,9.52,11.18c1.2,1.19,2.42,2.36,3.6,3.58a1.64,1.64,0,0,0,2.2.16l7.74-7.73a3.15,3.15,0,0,1,1-.95C24.89,6,26.09,7.26,26,8.37Z" transform="translate(-2.37 -6.17)"/></svg>